<svg data-v-fde0c5aa="" xmlns="http://www.w3.org/2000/svg" viewBox="0 0 300 300" class="iconLeftSlogan"><!----><defs data-v-fde0c5aa=""><linearGradient data-v-fde0c5aa="" gradientTransform="rotate(25)" id="302206c5-9ed5-4310-bbd4-1e49690f0885" x1="0%" y1="0%" x2="100%" y2="0%"><stop data-v-fde0c5aa="" offset="0%" stop-color="#0978A6" stop-opacity="1"></stop><stop data-v-fde0c5aa="" offset="100%" stop-color="#FB9447" stop-opacity="1"></stop></linearGradient></defs><rect data-v-fde0c5aa="" fill="url(#302206c5-9ed5-4310-bbd4-1e49690f0885)" x="0" y="0" width="300px" height="300px" class="logo-background-square"></rect><defs data-v-fde0c5aa=""><!----></defs><g data-v-fde0c5aa="" id="739ec5d3-fe7f-4af0-b00a-7126a5b208c5" fill="#ffffff" transform="matrix(2.4131421070765775,0,0,2.4131421070765775,112.79832999402541,117.01482004928461)"><path d="M3.36 13.77L3.36 13.77Q2.63 13.77 2.02 13.41Q1.42 13.04 1.00 12.41Q0.59 11.79 0.36 10.94Q0.14 10.09 0.14 9.11L0.14 9.11Q0.14 7.70 0.46 6.59Q0.79 5.48 1.33 4.72Q1.87 3.95 2.56 3.54Q3.25 3.13 3.98 3.13L3.98 3.13Q4.66 3.13 5.13 3.38Q5.59 3.62 5.87 4.01Q6.15 4.39 6.25 4.85Q6.36 5.30 6.32 5.71L6.32 5.71Q6.25 6.51 5.78 7Q5.30 7.49 4.69 7.49L4.69 7.49Q4.48 7.48 4.27 7.42L4.27 7.42Q4.07 7.37 3.87 7.26Q3.66 7.15 3.49 6.95L3.49 6.95Q4.06 6.99 4.38 6.71Q4.69 6.44 4.84 6.10L4.84 6.10Q5.00 5.70 5.03 5.17L5.03 5.17Q5.03 4.87 4.94 4.64Q4.84 4.42 4.68 4.27Q4.53 4.13 4.35 4.06Q4.17 3.99 4.01 3.99L4.01 3.99Q3.64 3.99 3.21 4.28Q2.78 4.57 2.39 5.15Q2.01 5.73 1.76 6.62Q1.50 7.52 1.50 8.75L1.50 8.75Q1.50 9.97 1.72 10.74Q1.94 11.51 2.26 11.94Q2.57 12.37 2.92 12.53Q3.27 12.69 3.51 12.69L3.51 12.69Q3.99 12.65 4.39 12.36L4.39 12.36Q4.73 12.11 5.04 11.57Q5.35 11.03 5.46 10.02L5.46 10.02Q5.63 10.04 5.75 10.10Q5.87 10.17 5.95 10.24L5.95 10.24Q6.03 10.32 6.10 10.43L6.10 10.43Q6.11 10.45 6.10 10.71Q6.08 10.96 6.00 11.33Q5.92 11.70 5.75 12.13Q5.58 12.55 5.27 12.92Q4.96 13.29 4.50 13.53Q4.03 13.77 3.36 13.77ZM10.75 8.37L10.75 8.37Q10.75 8.56 10.64 8.76Q10.54 8.96 10.39 9.13Q10.24 9.31 10.06 9.44Q9.87 9.57 9.71 9.60L9.71 9.60Q9.82 9.17 9.78 8.94Q9.73 8.71 9.64 8.60L9.64 8.60Q9.53 8.48 9.37 8.46L9.37 8.46Q9.12 8.46 8.89 8.74Q8.67 9.02 8.50 9.43Q8.34 9.83 8.24 10.29Q8.15 10.75 8.15 11.12L8.15 11.12Q8.13 11.38 8.16 11.62L8.16 11.62Q8.18 11.83 8.21 12.04Q8.24 12.26 8.31 12.39L8.31 12.39Q8.23 12.46 8.05 12.55Q7.86 12.65 7.66 12.67Q7.46 12.70 7.31 12.61Q7.15 12.51 7.14 12.20L7.14 12.20Q7.11 11.89 7.10 11.52Q7.10 11.14 7.10 10.77Q7.11 10.39 7.12 10.02Q7.14 9.65 7.16 9.34L7.16 9.34Q7.19 8.74 7.19 8.41Q7.19 8.08 7.18 7.78L7.18 7.78Q7.18 7.72 7.36 7.62Q7.55 7.52 7.77 7.44Q8.00 7.36 8.19 7.34Q8.38 7.33 8.38 7.42L8.38 7.42Q8.38 7.57 8.35 8.02Q8.31 8.46 8.26 8.94L8.26 8.94Q8.35 8.68 8.51 8.38Q8.67 8.08 8.87 7.82Q9.08 7.56 9.34 7.39Q9.60 7.22 9.91 7.22L9.91 7.22Q10.16 7.22 10.32 7.37Q10.47 7.52 10.57 7.71Q10.66 7.90 10.71 8.09Q10.75 8.29 10.75 8.37ZM14.96 10.21L14.96 10.21Q14.93 10.75 14.77 11.20Q14.62 11.65 14.34 11.98Q14.07 12.32 13.69 12.51Q13.32 12.70 12.87 12.71L12.87 12.71Q12.47 12.73 12.12 12.52Q11.77 12.32 11.51 11.95Q11.25 11.58 11.12 11.07Q10.99 10.55 11.05 9.95L11.05 9.95Q11.09 9.26 11.31 8.76Q11.53 8.26 11.77 7.93Q12.02 7.60 12.23 7.44Q12.44 7.29 12.50 7.26L12.50 7.26Q12.59 7.22 12.67 7.24Q12.76 7.26 12.85 7.29L12.85 7.29Q12.88 7.30 12.91 7.36L12.91 7.36Q12.96 7.45 12.97 7.71L12.97 7.71Q13.04 7.56 13.15 7.46Q13.26 7.37 13.37 7.33L13.37 7.33Q13.51 7.27 13.64 7.26L13.64 7.26Q13.74 7.25 13.98 7.41Q14.22 7.57 14.44 7.93Q14.67 8.29 14.83 8.85Q15.00 9.42 14.96 10.21ZM14.03 10.05L14.03 10.05Q14.04 9.72 14.01 9.39Q13.97 9.05 13.90 8.77Q13.82 8.49 13.71 8.32Q13.60 8.15 13.49 8.15L13.49 8.15Q13.37 8.18 13.22 8.27L13.22 8.27Q13.10 8.35 12.95 8.53Q12.80 8.71 12.66 9.04L12.66 9.04Q12.65 9.00 12.63 8.89L12.63 8.89Q12.62 8.79 12.61 8.63Q12.61 8.48 12.63 8.20L12.63 8.20Q12.44 8.44 12.34 8.75Q12.24 9.06 12.18 9.35L12.18 9.35Q12.13 9.69 12.10 10.04L12.10 10.04Q12.09 10.40 12.13 10.76Q12.18 11.12 12.30 11.39Q12.41 11.66 12.58 11.83Q12.74 11.99 12.97 11.98L12.97 11.98Q13.21 11.96 13.38 11.79Q13.56 11.61 13.70 11.33Q13.84 11.06 13.92 10.72Q14 10.38 14.03 10.05ZM18.88 11.83L18.88 11.83Q18.65 12.22 18.26 12.51Q17.87 12.80 17.27 12.80L17.27 12.80Q16.90 12.80 16.58 12.62Q16.26 12.44 16.02 12.13Q15.79 11.81 15.66 11.38Q15.53 10.94 15.53 10.42L15.53 10.42Q15.53 9.65 15.74 9.05Q15.96 8.45 16.30 8.04Q16.65 7.63 17.08 7.41Q17.51 7.19 17.95 7.19L17.95 7.19Q18.17 7.19 18.35 7.27Q18.53 7.36 18.66 7.49Q18.80 7.62 18.90 7.77Q19.00 7.92 19.09 8.04L19.09 8.04Q19.09 7.72 19.07 7.47Q19.06 7.22 19.02 7.07L19.02 7.07Q19.21 7.12 19.35 7.18Q19.50 7.23 19.59 7.29L19.59 7.29Q19.70 7.34 19.78 7.41L19.78 7.41Q19.97 7.59 20.02 7.78Q20.06 7.97 20.00 8.33L20.00 8.33Q19.97 8.50 19.93 8.98Q19.89 9.46 19.85 10.04Q19.81 10.61 19.78 11.20Q19.74 11.79 19.73 12.18L19.73 12.18Q19.70 12.67 19.71 13.19Q19.73 13.71 19.76 14.19Q19.80 14.67 19.86 15.10Q19.92 15.53 20.00 15.86L20.00 15.86Q19.92 15.97 19.79 16.02Q19.66 16.06 19.54 16.08L19.54 16.08Q19.39 16.11 19.25 16.08L19.25 16.08Q18.85 16.04 18.76 15.80Q18.66 15.56 18.66 15.16L18.66 15.16Q18.66 15.03 18.68 14.68Q18.70 14.34 18.74 13.88Q18.77 13.43 18.81 12.89Q18.84 12.36 18.88 11.83ZM17.62 12.06L17.62 12.06Q17.79 12.06 18.02 11.90Q18.25 11.74 18.46 11.46Q18.66 11.17 18.81 10.77Q18.96 10.36 18.96 9.87L18.96 9.87Q18.96 9.34 18.85 8.95Q18.74 8.56 18.58 8.31Q18.42 8.07 18.24 7.95Q18.06 7.83 17.92 7.83L17.92 7.83Q17.61 7.83 17.38 8.03Q17.16 8.22 17.01 8.52Q16.87 8.83 16.80 9.23Q16.72 9.63 16.71 10.04L16.71 10.04Q16.71 10.42 16.77 10.78Q16.83 11.14 16.95 11.43Q17.08 11.72 17.25 11.89Q17.42 12.06 17.62 12.06ZM23.99 7.48L23.99 7.48Q23.99 7.33 24.18 7.25Q24.36 7.18 24.58 7.18Q24.79 7.18 24.96 7.25Q25.14 7.33 25.13 7.45L25.13 7.45Q25.12 7.55 25.10 7.83Q25.09 8.11 25.07 8.49Q25.05 8.87 25.02 9.31Q24.99 9.75 24.97 10.17Q24.95 10.58 24.94 10.94Q24.94 11.29 24.94 11.48L24.94 11.48Q24.94 11.73 24.96 11.94L24.96 11.94Q24.99 12.11 25.03 12.28Q25.07 12.46 25.16 12.52L25.16 12.52Q25.05 12.56 24.93 12.58Q24.81 12.59 24.72 12.61L24.72 12.61Q24.61 12.62 24.50 12.62L24.50 12.62Q24.27 12.62 24.11 12.52Q23.95 12.43 23.95 12.13L23.95 12.13Q23.95 11.98 23.97 11.69Q23.99 11.40 24.02 11.07L24.02 11.07Q23.93 11.36 23.79 11.66Q23.65 11.96 23.45 12.20Q23.26 12.43 23.01 12.58Q22.76 12.73 22.45 12.73L22.45 12.73Q22.09 12.73 21.80 12.58Q21.51 12.43 21.29 12.15Q21.07 11.87 20.96 11.46Q20.85 11.05 20.88 10.51L20.88 10.51Q20.88 10.10 20.89 9.64L20.89 9.64Q20.90 9.24 20.93 8.72Q20.96 8.20 21.03 7.64L21.03 7.64Q21.04 7.59 21.22 7.51Q21.40 7.42 21.62 7.37Q21.83 7.31 22.04 7.33Q22.24 7.34 22.34 7.49L22.34 7.49Q22.27 7.74 22.20 8.07Q22.13 8.41 22.08 8.76Q22.03 9.12 22.00 9.46Q21.97 9.80 21.97 10.09L21.97 10.09Q21.97 10.35 22.00 10.66Q22.03 10.96 22.10 11.23Q22.18 11.50 22.32 11.68Q22.46 11.85 22.70 11.85L22.70 11.85Q22.96 11.85 23.15 11.63Q23.35 11.40 23.49 11.05Q23.63 10.69 23.72 10.23Q23.82 9.78 23.88 9.32Q23.94 8.87 23.96 8.46Q23.98 8.04 23.99 7.75L23.99 7.75L23.99 7.48ZM27.92 12.71L27.92 12.71Q26.96 12.71 26.44 12.07Q25.92 11.43 25.92 10.39L25.92 10.39Q25.92 9.67 26.13 9.03Q26.35 8.39 26.70 7.93Q27.06 7.46 27.53 7.20Q28 6.93 28.52 6.93L28.52 6.93Q29.03 6.93 29.38 7.29Q29.74 7.66 29.74 8.33L29.74 8.33Q29.74 8.76 29.54 9.19Q29.35 9.63 29.05 9.96Q28.74 10.29 28.37 10.50Q28 10.71 27.66 10.71L27.66 10.71Q27.44 10.71 27.29 10.65Q27.14 10.60 27.02 10.49L27.02 10.49Q27.06 11.27 27.36 11.57Q27.66 11.88 28.14 11.88L28.14 11.88Q28.46 11.88 28.72 11.74Q28.97 11.61 29.15 11.43Q29.33 11.25 29.44 11.07Q29.54 10.88 29.59 10.79L29.59 10.79Q29.63 10.71 29.73 10.71Q29.83 10.71 29.83 10.87L29.83 10.87Q29.83 11.02 29.73 11.33Q29.63 11.63 29.39 11.94Q29.16 12.25 28.80 12.48Q28.44 12.71 27.92 12.71ZM28.55 7.52L28.55 7.52Q28.46 7.52 28.24 7.69Q28.01 7.86 27.76 8.19Q27.51 8.52 27.30 8.98Q27.08 9.43 27.03 10.01L27.03 10.01Q27.85 9.82 28.33 9.41Q28.81 9.00 28.81 8.20L28.81 8.20Q28.81 7.81 28.71 7.66Q28.62 7.52 28.55 7.52ZM35.77 6.48L35.77 6.48Q35.62 6.45 35.36 6.43Q35.11 6.40 34.85 6.38L34.85 6.38Q34.55 6.37 34.21 6.37L34.21 6.37Q33.87 6.34 33.35 6.36Q32.84 6.38 32.28 6.38L32.28 6.38Q32.27 6.74 32.23 7.11Q32.20 7.48 32.17 7.83L32.17 7.83Q32.10 8.49 32.05 9.17Q32.01 9.86 32.01 10.47Q32.01 11.09 32.08 11.59Q32.16 12.09 32.36 12.37L32.36 12.37Q32.20 12.50 32.01 12.56Q31.81 12.62 31.66 12.65L31.66 12.65Q31.49 12.69 31.31 12.69L31.31 12.69Q31.14 12.69 31.04 12.58Q30.93 12.47 30.91 12.20L30.91 12.20Q30.88 11.73 30.91 11.26Q30.93 10.79 30.96 10.27Q30.99 9.75 31.04 9.15Q31.08 8.56 31.12 7.85L31.12 7.85Q31.16 7.11 31.16 6.41L31.16 6.41Q30.64 6.43 30.28 6.43Q29.93 6.43 29.89 6.41L29.89 6.41Q29.85 6.38 29.79 6.29L29.79 6.29Q29.74 6.21 29.65 6.04Q29.56 5.88 29.42 5.58L29.42 5.58Q29.68 5.58 29.99 5.58Q30.30 5.58 30.56 5.56L30.56 5.56Q30.86 5.55 31.16 5.54L31.16 5.54Q31.14 5.32 31.14 5.07L31.14 5.07Q31.13 4.88 31.13 4.64Q31.13 4.40 31.12 4.20L31.12 4.20Q31.12 4.12 31.32 4.00Q31.51 3.88 31.75 3.79Q31.98 3.69 32.18 3.66Q32.38 3.64 32.38 3.76L32.38 3.76Q32.38 3.88 32.37 4.35Q32.36 4.83 32.33 5.50L32.33 5.50Q32.47 5.50 32.54 5.48L32.54 5.48Q33.26 5.46 33.71 5.42Q34.15 5.39 34.44 5.41Q34.73 5.44 34.95 5.55Q35.16 5.66 35.44 5.91L35.44 5.91Q35.53 5.99 35.60 6.08L35.60 6.08Q35.67 6.17 35.72 6.27Q35.77 6.37 35.77 6.48ZM37.42 11.87L37.42 11.87Q37.45 11.96 37.50 12.04L37.50 12.04Q37.54 12.11 37.62 12.17Q37.69 12.24 37.80 12.25L37.80 12.25Q37.71 12.44 37.61 12.51L37.61 12.51Q37.56 12.55 37.52 12.56L37.52 12.56Q37.39 12.61 37.15 12.61Q36.90 12.61 36.67 12.46L36.67 12.46Q36.59 12.39 36.52 12.25L36.52 12.25Q36.45 12.14 36.40 11.94Q36.35 11.74 36.33 11.43L36.33 11.43Q36.13 11.84 35.90 12.08Q35.66 12.32 35.42 12.43L35.42 12.43Q35.16 12.58 34.89 12.61L34.89 12.61Q34.55 12.63 34.24 12.49Q33.93 12.35 33.72 12.05Q33.51 11.76 33.40 11.33Q33.29 10.91 33.33 10.38L33.33 10.38Q33.37 9.82 33.55 9.38Q33.73 8.94 33.97 8.60Q34.22 8.26 34.49 8.02Q34.77 7.78 35.02 7.62Q35.27 7.46 35.46 7.39Q35.64 7.31 35.70 7.30L35.70 7.30Q35.85 7.26 35.96 7.27Q36.07 7.29 36.15 7.40L36.15 7.40Q36.18 7.44 36.22 7.49L36.22 7.49Q36.24 7.55 36.29 7.64Q36.33 7.72 36.35 7.83L36.35 7.83Q36.03 7.98 35.74 8.17Q35.45 8.35 35.21 8.61Q34.97 8.87 34.79 9.24Q34.62 9.61 34.52 10.14L34.52 10.14Q34.38 10.81 34.60 11.22Q34.81 11.63 35.18 11.57L35.18 11.57Q35.40 11.50 35.60 11.31L35.60 11.31Q35.78 11.14 35.98 10.81Q36.18 10.49 36.35 9.91L36.35 9.91Q36.42 9.09 36.47 8.62Q36.52 8.15 36.56 7.90L36.56 7.90Q36.61 7.62 36.64 7.52L36.64 7.52Q36.68 7.45 36.80 7.39Q36.93 7.33 37.08 7.29Q37.23 7.25 37.35 7.24Q37.47 7.23 37.52 7.25L37.52 7.25Q37.54 7.26 37.54 7.58Q37.54 7.90 37.52 8.39Q37.50 8.87 37.47 9.44Q37.45 10.01 37.43 10.51Q37.41 11.02 37.40 11.40Q37.39 11.77 37.42 11.87ZM42 6.22L42 6.22Q41.81 6.17 41.61 6.05Q41.41 5.93 41.25 5.78Q41.10 5.62 41.02 5.43Q40.93 5.24 40.97 5.02L40.97 5.02Q41.06 4.57 41.49 4.17Q41.93 3.77 42.67 3.54L42.67 3.54L42.67 3.50Q42.68 3.35 42.87 3.19Q43.05 3.04 43.33 2.98L43.33 2.98Q43.59 2.93 43.70 2.98Q43.82 3.04 43.82 3.13L43.82 3.13Q43.82 3.16 43.81 3.19Q43.80 3.23 43.80 3.25L43.80 3.25L43.80 3.32Q44.47 3.27 45.29 3.36L45.29 3.36Q46.28 3.49 46.89 3.83Q47.51 4.17 47.82 4.61Q48.14 5.06 48.21 5.54Q48.29 6.02 48.21 6.41L48.21 6.41Q48.13 6.88 47.91 7.25Q47.69 7.63 47.39 7.92Q47.09 8.22 46.72 8.44Q46.35 8.65 45.94 8.80L45.94 8.80Q46.38 8.90 46.68 9.11Q46.99 9.32 47.18 9.61Q47.37 9.90 47.46 10.25Q47.54 10.61 47.51 10.98L47.51 10.98Q47.48 11.55 47.22 12.05Q46.95 12.55 46.50 12.92Q46.05 13.29 45.42 13.49Q44.80 13.70 44.05 13.67L44.05 13.67L43.89 13.67Q43.68 13.85 43.44 13.94Q43.20 14.03 42.98 14.07L42.98 14.07Q42.74 14.12 42.49 14.11L42.49 14.11Q42.49 14.01 42.50 13.91Q42.51 13.81 42.51 13.71L42.51 13.71Q42.51 13.60 42.52 13.49L42.52 13.49Q42.36 13.47 42.21 13.41L42.21 13.41Q42.07 13.37 41.92 13.32Q41.78 13.28 41.67 13.22L41.67 13.22Q41.62 13.14 41.59 13.02L41.59 13.02Q41.56 12.91 41.56 12.78Q41.55 12.65 41.60 12.48L41.60 12.48Q42.03 12.65 42.57 12.73L42.57 12.73Q42.60 12.03 42.62 11.07Q42.64 10.12 42.64 9.06L42.64 9.06Q42.64 7.88 42.65 6.73Q42.66 5.58 42.66 4.76L42.66 4.76Q42.26 4.96 42.04 5.32Q41.82 5.67 42 6.22ZM46.21 11.05L46.21 11.05Q46.27 10.45 46.03 10.08Q45.80 9.72 45.42 9.54Q45.05 9.35 44.60 9.31Q44.16 9.27 43.80 9.30L43.80 9.30Q43.83 10.43 43.85 11.35Q43.86 12.28 43.87 12.87L43.87 12.87Q44.30 12.88 44.69 12.77Q45.09 12.66 45.41 12.43Q45.73 12.20 45.95 11.85Q46.17 11.50 46.21 11.05ZM43.78 4.44L43.78 4.44Q43.75 5.14 43.75 6.10Q43.75 7.05 43.78 8.23L43.78 8.23Q43.78 8.34 43.78 8.44Q43.78 8.54 43.79 8.65L43.79 8.65Q44.28 8.61 44.82 8.42Q45.35 8.22 45.79 7.89Q46.24 7.56 46.53 7.12Q46.81 6.67 46.81 6.14L46.81 6.14Q46.81 5.73 46.59 5.41Q46.38 5.09 46.01 4.87Q45.65 4.65 45.18 4.54Q44.71 4.43 44.20 4.43L44.20 4.43Q44.09 4.43 43.99 4.43Q43.89 4.43 43.78 4.44ZM52.39 8.37L52.39 8.37Q52.39 8.56 52.29 8.76Q52.19 8.96 52.04 9.13Q51.88 9.31 51.70 9.44Q51.52 9.57 51.35 9.60L51.35 9.60Q51.46 9.17 51.42 8.94Q51.38 8.71 51.28 8.60L51.28 8.60Q51.17 8.48 51.01 8.46L51.01 8.46Q50.76 8.46 50.54 8.74Q50.31 9.02 50.15 9.43Q49.98 9.83 49.89 10.29Q49.79 10.75 49.79 11.12L49.79 11.12Q49.78 11.38 49.81 11.62L49.81 11.62Q49.82 11.83 49.85 12.04Q49.89 12.26 49.96 12.39L49.96 12.39Q49.88 12.46 49.69 12.55Q49.51 12.65 49.31 12.67Q49.11 12.70 48.95 12.61Q48.79 12.51 48.78 12.20L48.78 12.20Q48.75 11.89 48.75 11.52Q48.74 11.14 48.75 10.77Q48.75 10.39 48.77 10.02Q48.78 9.65 48.81 9.34L48.81 9.34Q48.84 8.74 48.84 8.41Q48.84 8.08 48.82 7.78L48.82 7.78Q48.82 7.72 49.01 7.62Q49.19 7.52 49.42 7.44Q49.64 7.36 49.83 7.34Q50.03 7.33 50.03 7.42L50.03 7.42Q50.03 7.57 49.99 8.02Q49.96 8.46 49.90 8.94L49.90 8.94Q50.00 8.68 50.16 8.38Q50.31 8.08 50.52 7.82Q50.72 7.56 50.98 7.39Q51.24 7.22 51.56 7.22L51.56 7.22Q51.80 7.22 51.96 7.37Q52.12 7.52 52.21 7.71Q52.31 7.90 52.35 8.09Q52.39 8.29 52.39 8.37ZM56.60 10.21L56.60 10.21Q56.57 10.75 56.42 11.20Q56.26 11.65 55.99 11.98Q55.71 12.32 55.34 12.51Q54.96 12.70 54.51 12.71L54.51 12.71Q54.11 12.73 53.76 12.52Q53.42 12.32 53.16 11.95Q52.90 11.58 52.77 11.07Q52.64 10.55 52.69 9.95L52.69 9.95Q52.73 9.26 52.95 8.76Q53.17 8.26 53.42 7.93Q53.66 7.60 53.87 7.44Q54.09 7.29 54.14 7.26L54.14 7.26Q54.24 7.22 54.32 7.24Q54.40 7.26 54.50 7.29L54.50 7.29Q54.52 7.30 54.55 7.36L54.55 7.36Q54.61 7.45 54.62 7.71L54.62 7.71Q54.69 7.56 54.80 7.46Q54.91 7.37 55.02 7.33L55.02 7.33Q55.15 7.27 55.29 7.26L55.29 7.26Q55.38 7.25 55.62 7.41Q55.86 7.57 56.09 7.93Q56.31 8.29 56.48 8.85Q56.64 9.42 56.60 10.21ZM55.67 10.05L55.67 10.05Q55.69 9.72 55.65 9.39Q55.62 9.05 55.54 8.77Q55.47 8.49 55.36 8.32Q55.25 8.15 55.14 8.15L55.14 8.15Q55.02 8.18 54.87 8.27L54.87 8.27Q54.74 8.35 54.59 8.53Q54.44 8.71 54.30 9.04L54.30 9.04Q54.29 9.00 54.28 8.89L54.28 8.89Q54.26 8.79 54.26 8.63Q54.25 8.48 54.28 8.20L54.28 8.20Q54.09 8.44 53.98 8.75Q53.88 9.06 53.83 9.35L53.83 9.35Q53.77 9.69 53.74 10.04L53.74 10.04Q53.73 10.40 53.78 10.76Q53.83 11.12 53.94 11.39Q54.06 11.66 54.22 11.83Q54.39 11.99 54.62 11.98L54.62 11.98Q54.85 11.96 55.03 11.79Q55.21 11.61 55.34 11.33Q55.48 11.06 55.56 10.72Q55.64 10.38 55.67 10.05ZM59.50 9.97L59.50 9.97Q59.80 10.08 60.07 10.17Q60.35 10.27 60.55 10.40Q60.76 10.54 60.88 10.73Q61.00 10.91 61.00 11.18L61.00 11.18Q61.00 11.51 60.86 11.80Q60.72 12.09 60.44 12.30Q60.17 12.52 59.78 12.65Q59.39 12.78 58.91 12.78L58.91 12.78Q58.38 12.78 58.05 12.68Q57.72 12.58 57.54 12.44Q57.37 12.30 57.31 12.17Q57.26 12.03 57.26 11.95L57.26 11.95Q57.26 11.79 57.33 11.59Q57.39 11.39 57.59 11.16L57.59 11.16Q57.67 11.06 57.76 10.98L57.76 10.98Q57.96 10.81 58.15 10.77L58.15 10.77Q58.12 11.09 58.22 11.29Q58.32 11.48 58.50 11.59Q58.67 11.70 58.88 11.74Q59.09 11.79 59.28 11.79L59.28 11.79Q59.47 11.79 59.67 11.73Q59.87 11.68 60.03 11.59Q60.20 11.50 60.30 11.38Q60.40 11.27 60.40 11.13L60.40 11.13Q60.40 10.98 60.28 10.88Q60.16 10.79 59.97 10.73Q59.79 10.66 59.58 10.63Q59.36 10.60 59.17 10.55L59.17 10.55Q58.98 10.51 58.66 10.44Q58.34 10.36 58.03 10.20Q57.72 10.04 57.50 9.76Q57.27 9.49 57.27 9.04L57.27 9.04Q57.27 8.52 57.54 8.13Q57.80 7.74 58.19 7.47Q58.58 7.21 59.02 7.07Q59.46 6.93 59.80 6.93L59.80 6.93Q59.98 6.93 60.18 6.98Q60.39 7.03 60.57 7.14Q60.74 7.26 60.86 7.45Q60.98 7.64 60.98 7.94L60.98 7.94Q60.98 8.24 60.93 8.43Q60.88 8.61 60.79 8.72Q60.70 8.82 60.58 8.85Q60.46 8.87 60.29 8.87L60.29 8.87Q60.18 8.87 60.09 8.85L60.09 8.85Q60.01 8.82 59.91 8.79Q59.81 8.76 59.73 8.70L59.73 8.70Q59.87 8.53 59.94 8.38Q60.02 8.23 60.02 8.01L60.02 8.01Q60.02 7.82 59.92 7.67Q59.81 7.52 59.58 7.52L59.58 7.52Q59.34 7.52 59.11 7.62Q58.88 7.71 58.71 7.88Q58.54 8.04 58.44 8.25Q58.34 8.46 58.34 8.71L58.34 8.71Q58.34 9.08 58.62 9.41Q58.90 9.73 59.50 9.97Z"></path></g><defs data-v-fde0c5aa=""><!----></defs><g data-v-fde0c5aa="" id="01e5ebde-3bf3-4702-84f0-f18e8accc9b1" stroke="none" fill="#ffffff" transform="matrix(1.8792553090767021,0,0,1.8792553090767021,40,119.93191505477276)"><path d="M16 32c8.837 0 16-7.163 16-16S24.837 0 16 0 0 7.163 0 16s7.163 16 16 16zM14.817 6.421h2v8.886h8.887v2H14.817V6.421zm-5.959.437h2v14.283h14.283v2H8.858V6.858z"></path></g><defs data-v-fde0c5aa=""><!----></defs><g data-v-fde0c5aa="" id="e8531c23-5cfc-4d83-ab1a-2ce4c0b0814f" fill="#ffffff" transform="matrix(0.40914841932040125,0,0,0.40914841932040125,112.79248520456854,164.85193156156754)"><path d="M9.51 3.86L10.36 12.60L10.78 12.60L9.73 2.45L5.81 10.70L1.89 2.45L0.84 12.60L1.26 12.60L2.11 3.86L5.81 11.69ZM23.10 2.45L18.83 12.60L19.32 12.60L20.59 9.52L25.61 9.52L26.88 12.60L27.37 12.60ZM23.10 3.50L25.41 9.07L20.79 9.07ZM40.10 2.80L37.09 8.16L34.20 2.80L33.67 2.80L36.86 8.62L36.86 12.60L37.31 12.60L37.31 8.61L40.63 2.80ZM60.20 7.70C60.20 6.33 60.58 5.22 61.34 4.38C62.10 3.53 63.11 3.11 64.36 3.11C65.55 3.11 66.60 3.54 67.51 4.41L67.51 3.81C66.66 3.06 65.61 2.69 64.36 2.69C63.00 2.69 61.90 3.16 61.03 4.09C60.17 5.03 59.74 6.23 59.74 7.70C59.74 9.17 60.17 10.37 61.03 11.30C61.90 12.24 63.00 12.71 64.36 12.71C65.61 12.71 66.66 12.34 67.51 11.59L67.51 11.03C66.64 11.87 65.59 12.29 64.36 12.29C63.11 12.29 62.10 11.87 61.34 11.03C60.58 10.18 60.20 9.07 60.20 7.70ZM77.31 2.80ZM76.89 2.80L76.89 12.60L77.31 12.60L77.31 8.48L78.86 8.48L81.98 12.60L82.53 12.60L79.34 8.47C80.23 8.41 80.95 8.15 81.49 7.67C82.02 7.20 82.29 6.52 82.29 5.64C82.29 4.71 81.99 4.00 81.38 3.52C80.78 3.04 79.98 2.80 78.99 2.80ZM77.31 3.21L78.99 3.21C79.86 3.21 80.55 3.41 81.07 3.83C81.60 4.24 81.86 4.85 81.86 5.64C81.86 6.44 81.60 7.04 81.07 7.45C80.55 7.87 79.86 8.08 78.99 8.08L77.31 8.08ZM90.79 7.70C90.79 6.38 91.20 5.29 92.01 4.41C92.82 3.53 93.85 3.09 95.09 3.09C96.33 3.09 97.36 3.53 98.17 4.41C98.98 5.29 99.39 6.38 99.39 7.70C99.39 9.02 98.98 10.11 98.17 10.99C97.36 11.87 96.33 12.31 95.09 12.31C93.85 12.31 92.82 11.87 92.01 10.99C91.20 10.11 90.79 9.02 90.79 7.70ZM90.37 7.70C90.37 9.16 90.82 10.36 91.71 11.30C92.60 12.24 93.73 12.71 95.09 12.71C96.45 12.71 97.58 12.24 98.47 11.30C99.36 10.36 99.81 9.16 99.81 7.70C99.81 6.24 99.36 5.04 98.47 4.10C97.58 3.16 96.45 2.69 95.09 2.69C93.73 2.69 92.60 3.16 91.71 4.10C90.82 5.04 90.37 6.24 90.37 7.70ZM108.21 7.70C108.21 9.16 108.65 10.36 109.54 11.30C110.43 12.24 111.56 12.71 112.92 12.71C114.16 12.71 115.21 12.31 116.09 11.51L117.25 12.60L117.81 12.60L116.35 11.24C117.21 10.29 117.64 9.11 117.64 7.70C117.64 6.24 117.20 5.04 116.31 4.10C115.41 3.16 114.29 2.69 112.92 2.69C111.56 2.69 110.43 3.16 109.54 4.10C108.65 5.04 108.21 6.24 108.21 7.70ZM112.77 8.40L115.78 11.21C115.00 11.94 114.04 12.31 112.92 12.31C111.68 12.31 110.66 11.87 109.84 10.99C109.03 10.11 108.63 9.02 108.63 7.70C108.63 6.38 109.03 5.29 109.84 4.41C110.66 3.53 111.68 3.09 112.92 3.09C114.17 3.09 115.19 3.53 116.00 4.41C116.82 5.29 117.22 6.38 117.22 7.70C117.22 8.99 116.83 10.07 116.05 10.95L113.33 8.40ZM126.49 2.80L126.49 9.24C126.49 10.29 126.77 11.13 127.34 11.77C127.91 12.42 128.67 12.74 129.61 12.74C130.55 12.74 131.31 12.42 131.88 11.77C132.45 11.13 132.73 10.29 132.73 9.24L132.73 2.80L132.31 2.80L132.31 9.24C132.31 10.17 132.06 10.92 131.55 11.47C131.04 12.02 130.40 12.29 129.61 12.29C128.83 12.29 128.18 12.02 127.67 11.47C127.16 10.92 126.91 10.17 126.91 9.24L126.91 2.80ZM142.60 7.48L146.94 7.48L146.94 7.08L142.60 7.08L142.60 3.21L147.22 3.21L147.22 2.80L142.18 2.80L142.18 12.60L147.22 12.60L147.22 12.19L142.60 12.19ZM155.62 3.21L158.14 3.21L158.14 12.60L158.56 12.60L158.56 3.21L161.08 3.21L161.08 2.80L155.62 2.80ZM171.72 2.45L167.45 12.60L167.94 12.60L169.22 9.52L174.23 9.52L175.50 12.60L175.99 12.60ZM171.72 3.50L174.03 9.07L169.41 9.07ZM184.14 9.74L183.76 9.90C184.39 11.77 185.44 12.71 186.91 12.71C187.83 12.71 188.52 12.45 188.99 11.93C189.45 11.41 189.69 10.77 189.69 10.01C189.69 9.66 189.63 9.35 189.51 9.06C189.39 8.78 189.26 8.55 189.12 8.37C188.97 8.19 188.77 8.02 188.51 7.86C188.25 7.70 188.04 7.58 187.87 7.50C187.71 7.43 187.49 7.34 187.21 7.22C187.17 7.21 187.05 7.16 186.86 7.08C186.66 7.01 186.54 6.96 186.49 6.94C186.45 6.91 186.34 6.87 186.17 6.80C186.00 6.73 185.89 6.67 185.84 6.64C185.79 6.60 185.70 6.54 185.57 6.45C185.44 6.37 185.35 6.30 185.30 6.24C185.26 6.18 185.19 6.10 185.11 6.00C185.02 5.90 184.97 5.80 184.93 5.70C184.90 5.61 184.87 5.50 184.84 5.38C184.81 5.25 184.80 5.12 184.80 4.98C184.80 4.41 185.00 3.95 185.40 3.62C185.79 3.29 186.28 3.12 186.87 3.12C188.00 3.12 188.79 3.77 189.22 5.07L189.63 4.90C189.42 4.23 189.09 3.69 188.62 3.29C188.16 2.89 187.58 2.69 186.89 2.69C186.20 2.69 185.60 2.90 185.09 3.33C184.58 3.76 184.32 4.33 184.32 5.04C184.32 5.39 184.40 5.71 184.54 5.99C184.69 6.27 184.90 6.51 185.19 6.71C185.47 6.91 185.73 7.07 185.96 7.17C186.18 7.28 186.48 7.41 186.84 7.55C187.12 7.65 187.32 7.72 187.42 7.77C187.52 7.82 187.69 7.90 187.94 8.02C188.18 8.13 188.35 8.24 188.46 8.34C188.57 8.45 188.69 8.58 188.84 8.75C188.98 8.92 189.08 9.11 189.14 9.32C189.20 9.54 189.22 9.78 189.22 10.05C189.22 10.72 189.03 11.27 188.66 11.68C188.28 12.09 187.71 12.29 186.96 12.29C185.72 12.29 184.79 11.44 184.14 9.74ZM209.92 2.80L209.92 12.60L212.02 12.60C214.14 12.60 215.21 11.69 215.21 9.87C215.21 9.19 214.97 8.62 214.50 8.17C214.03 7.72 213.46 7.41 212.80 7.25C214.03 7.02 214.65 6.30 214.65 5.11C214.65 4.40 214.39 3.84 213.89 3.42C213.38 3.01 212.66 2.80 211.74 2.80ZM210.34 7.08L210.34 3.21L211.74 3.21C212.51 3.21 213.12 3.37 213.56 3.71C214.01 4.05 214.23 4.51 214.23 5.11C214.23 5.60 214.09 5.99 213.82 6.31C213.55 6.62 213.24 6.83 212.89 6.93C212.54 7.03 212.16 7.08 211.74 7.08ZM210.34 7.48L212.02 7.48C212.42 7.48 212.82 7.56 213.22 7.72C213.62 7.88 213.98 8.16 214.28 8.54C214.59 8.92 214.75 9.37 214.75 9.87C214.75 11.42 213.84 12.19 212.02 12.19L210.34 12.19ZM224.73 7.48L229.07 7.48L229.07 7.08L224.73 7.08L224.73 3.21L229.35 3.21L229.35 2.80L224.31 2.80L224.31 12.60L229.35 12.60L229.35 12.19L224.73 12.19ZM252.63 11.69L249.40 2.80L248.95 2.80L252.66 12.95L255.60 3.79L258.54 12.95L262.25 2.80L261.80 2.80L258.57 11.69L255.60 2.45ZM270.72 2.80L270.72 12.60L271.14 12.60L271.14 2.80ZM279.61 3.21L282.13 3.21L282.13 12.60L282.55 12.60L282.55 3.21L285.07 3.21L285.07 2.80L279.61 2.80ZM293.61 2.80L293.61 12.60L294.03 12.60L294.03 7.62L300.26 7.62L300.26 12.60L300.68 12.60L300.68 2.80L300.26 2.80L300.26 7.18L294.03 7.18L294.03 2.80ZM326.77 2.80L323.76 8.16L320.88 2.80L320.35 2.80L323.54 8.62L323.54 12.60L323.99 12.60L323.99 8.61L327.31 2.80ZM335.64 7.70C335.64 6.38 336.04 5.29 336.85 4.41C337.67 3.53 338.69 3.09 339.93 3.09C341.18 3.09 342.20 3.53 343.01 4.41C343.83 5.29 344.23 6.38 344.23 7.70C344.23 9.02 343.83 10.11 343.01 10.99C342.20 11.87 341.18 12.31 339.93 12.31C338.69 12.31 337.67 11.87 336.85 10.99C336.04 10.11 335.64 9.02 335.64 7.70ZM335.22 7.70C335.22 9.16 335.66 10.36 336.55 11.30C337.44 12.24 338.57 12.71 339.93 12.71C341.30 12.71 342.42 12.24 343.31 11.30C344.21 10.36 344.65 9.16 344.65 7.70C344.65 6.24 344.21 5.04 343.31 4.10C342.42 3.16 341.30 2.69 339.93 2.69C338.57 2.69 337.44 3.16 336.55 4.10C335.66 5.04 335.22 6.24 335.22 7.70ZM353.54 2.80L353.54 9.24C353.54 10.29 353.83 11.13 354.40 11.77C354.97 12.42 355.72 12.74 356.66 12.74C357.61 12.74 358.36 12.42 358.93 11.77C359.50 11.13 359.79 10.29 359.79 9.24L359.79 2.80L359.37 2.80L359.37 9.24C359.37 10.17 359.11 10.92 358.60 11.47C358.09 12.02 357.45 12.29 356.66 12.29C355.88 12.29 355.23 12.02 354.72 11.47C354.22 10.92 353.96 10.17 353.96 9.24L353.96 2.80Z"></path></g></svg>